# ProBuilder 5.0.4
# https://unity3d.com/unity/features/worldbuilding/probuilder
# 30/03/2022 15:12:41

mtllib ./Pipe.mtl
o Pipe

g Pipe
v 15 -7.65 5
v 14.99998 7.649998 5
v 15 -7.649998 -4.999999
v 14.99998 7.65 -4.999999
v -15 7.649998 4.999999
v -15 7.65 -5
v -14.99998 -7.65 4.999999
v -14.99998 -7.649998 -5

vt 5 -7.65002
vt 5 7.649977
vt -4.999999 -7.650018
vt -4.999999 7.649979
vt 14.99998 4.999999
vt -15 4.999997
vt 14.99998 -5
vt -15 -5.000001
vt -4.999999 7.650018
vt -4.999999 -7.649979
vt 5 7.65002
vt 5 -7.649977
vt 14.99998 5
vt -15 5.000001
vt 14.99998 -4.999999
vt -15 -4.999997
vt 15 -7.649998
vt 14.99998 7.65
vt -14.99998 -7.649998
vt -15 7.65

vn -1 -1.371297E-06 -2.615541E-13
vn 6.063304E-15 -1 -1.907349E-07
vn 1 1.371297E-06 2.615541E-13
vn -1.212661E-14 1 1.907349E-07
vn -4.768375E-08 -6.538857E-14 1

usemtl ProBuilderDefault
f 1/1/1 2/2/1 4/4/1 3/3/1
f 2/5/2 5/6/2 6/8/2 4/7/2
f 5/9/3 7/10/3 8/12/3 6/11/3
f 7/13/4 1/14/4 3/16/4 8/15/4
f 3/17/5 4/18/5 6/20/5 8/19/5

